# xmcd
#
# Track frame offsets: 
#        150
#        11053
#        34815
#        62913
#        80366
#        105962
#        133118
#        153678
#        173961
#        192415
#
# Disc length: 2870 seconds
#
# Revision: 1
# Processed by: cddbd v1.5.2PL0 Copyright (c) Steve Scherf et al.
# Submitted via: ExactAudioCopy v1.1
#
DISCID=830b340a
DTITLE=Mbongwana Star - From Kinshasa
DYEAR=2015
DGENRE=Funk
TTITLE0=From Kinshasa To The Moon
TTITLE1=Shégué
TTITLE2=Nganshé
TTITLE3=Masobélé
TTITLE4=Coco Blues
TTITLE5=Malukayi
TTITLE6=Suzanna
TTITLE7=Kimpala Pala
TTITLE8=Kala
TTITLE9=1 Million C'est Quoi?
EXTD=
EXTT0=
EXTT1=
EXTT2=
EXTT3=
EXTT4=
EXTT5=
EXTT6=
EXTT7=
EXTT8=
EXTT9=
PLAYORDER=
